<?xml version="1.0" standalone="no"?>
<!DOCTYPE svg PUBLIC "-//W3C//DTD SVG 20010904//EN"
 "http://www.w3.org/TR/2001/REC-SVG-20010904/DTD/svg10.dtd">
<svg version="1.0" xmlns="http://www.w3.org/2000/svg"
 width="512.000000pt" height="512.000000pt" viewBox="0 0 512.000000 512.000000"
 preserveAspectRatio="xMidYMid meet">
<metadata>
Created by potrace 1.14, written by Peter Selinger 2001-2017
</metadata>
<g transform="translate(0.000000,512.000000) scale(0.100000,-0.100000)"
fill="#000000" stroke="none">
<path d="M2417 4974 c-1 -1 -43 -5 -92 -8 -87 -6 -109 -8 -225 -21 -30 -4 -63
-6 -72 -6 -10 0 -20 -5 -23 -10 -4 -5 -10 -7 -15 -4 -5 3 -19 1 -31 -6 -16 -8
-20 -8 -14 1 6 9 3 9 -12 1 -11 -6 -23 -7 -27 -4 -3 3 -6 1 -6 -5 0 -6 -9 -9
-20 -7 -11 2 -20 1 -20 -3 0 -4 -8 -8 -17 -8 -21 -1 -108 -20 -108 -24 0 -2
-36 -10 -57 -12 -10 -1 -18 -6 -18 -10 0 -4 -3 -7 -7 -7 -5 1 -12 0 -18 -1 -5
-1 -14 -3 -20 -4 -5 -1 -35 -9 -65 -19 -75 -25 -80 -27 -83 -25 -1 0 -21 -9
-44 -21 -24 -12 -43 -18 -43 -14 0 4 -5 2 -12 -5 -7 -7 -20 -12 -30 -12 -10 0
-18 -5 -18 -12 0 -6 -3 -9 -6 -6 -6 7 -269 -124 -293 -146 -9 -8 -23 -16 -31
-18 -8 -2 -19 -6 -25 -11 -5 -4 -62 -44 -125 -89 -63 -44 -116 -85 -118 -89
-2 -5 -10 -9 -18 -9 -9 0 -12 -4 -9 -10 3 -5 1 -10 -5 -10 -26 0 -260 -237
-319 -324 -8 -12 -17 -23 -21 -26 -3 -3 -16 -22 -30 -42 -14 -21 -28 -38 -32
-38 -5 0 -8 -9 -8 -20 0 -11 -4 -20 -8 -20 -9 0 -76 -115 -73 -125 1 -4 -6
-13 -16 -21 -10 -7 -14 -14 -9 -14 5 0 1 -9 -9 -20 -10 -11 -14 -20 -10 -20 4
0 0 -10 -11 -22 -10 -12 -13 -18 -5 -13 9 5 9 1 -2 -16 -17 -26 -63 -143 -71
-181 -3 -13 -12 -51 -20 -85 -37 -148 -45 -234 -40 -398 2 -82 6 -161 8 -175
3 -14 7 -43 11 -65 5 -32 21 -99 39 -170 10 -40 50 -152 57 -159 5 -6 9 -18 9
-28 0 -10 5 -18 12 -18 6 0 8 -3 5 -6 -11 -11 115 -233 185 -329 81 -110 254
-293 348 -368 76 -60 77 -61 110 -89 14 -11 50 -37 80 -56 67 -43 70 -47 60
-83 -5 -16 -6 -29 -3 -29 3 0 0 -6 -6 -14 -6 -8 -11 -18 -10 -22 1 -5 0 -16
-3 -24 -4 -8 -22 -67 -42 -130 -20 -64 -42 -127 -49 -140 -7 -14 -14 -28 -15
-33 -6 -29 -38 -107 -44 -107 -5 0 -8 -6 -8 -12 0 -7 -11 -37 -25 -66 -13 -29
-25 -56 -25 -60 -1 -4 -7 -14 -14 -22 -7 -8 -25 -41 -40 -72 -15 -32 -32 -58
-37 -58 -5 0 -8 -3 -7 -7 4 -11 -65 -133 -74 -133 -5 0 -8 -4 -8 -9 0 -8 -96
-154 -122 -186 -5 -5 -22 -28 -38 -50 -16 -22 -36 -47 -43 -55 -23 -25 -29
-40 -15 -35 15 5 56 13 113 21 22 4 45 10 50 14 6 4 18 6 27 5 10 -2 18 0 18
5 0 5 8 7 18 6 9 -2 31 1 47 6 38 12 48 15 58 17 4 0 23 7 42 15 19 8 35 13
35 10 0 -2 13 2 30 11 16 8 31 15 32 14 4 -3 48 10 73 21 100 42 161 65 167
63 5 -2 8 2 8 7 0 6 5 10 11 10 12 0 178 82 236 116 64 38 158 98 163 104 3 3
22 16 43 29 21 13 43 28 50 34 12 12 101 84 126 102 7 5 79 75 160 155 80 79
151 143 156 141 6 -1 24 -4 40 -6 17 -2 30 -4 30 -5 0 -1 11 -3 25 -5 14 -2
43 -6 65 -9 57 -8 152 -17 206 -20 25 -2 50 -5 55 -8 5 -3 23 -4 39 -1 40 6
46 6 75 -1 14 -3 27 0 32 7 5 7 8 8 8 1 0 -11 28 -12 46 -1 6 3 14 3 18 -1 8
-8 116 -10 111 -2 -2 3 27 6 63 7 81 1 242 17 250 23 1 1 11 4 22 5 11 1 23 4
28 5 4 1 11 2 16 1 5 -1 32 3 60 9 28 6 67 13 86 16 19 3 41 11 49 17 12 10
13 9 6 -3 -7 -13 -6 -13 7 -2 9 7 30 14 47 15 17 1 31 6 31 11 0 5 3 7 6 3 4
-3 22 0 41 8 24 10 32 11 26 2 -4 -7 4 -4 19 5 14 9 38 18 54 20 16 2 31 6 34
10 3 3 14 8 25 10 11 1 22 5 25 8 3 3 30 14 60 24 170 59 499 226 555 282 10
10 24 19 31 20 7 1 25 14 39 28 14 14 29 26 33 26 4 0 21 12 37 26 17 14 46
38 65 52 39 30 229 218 275 272 55 64 161 216 185 265 8 17 17 32 20 35 5 4
69 134 90 185 23 52 42 102 46 120 8 33 10 39 17 60 6 19 9 32 22 103 3 15 7
32 10 39 23 66 27 418 6 528 -7 39 -22 104 -33 145 -10 41 -20 80 -22 87 -1 7
-5 16 -9 19 -4 4 -7 13 -7 20 0 7 -9 33 -20 58 -11 26 -19 48 -19 51 -1 3 -8
20 -18 38 -9 17 -17 36 -18 40 0 4 -6 11 -13 16 -8 5 -13 11 -12 15 3 11 -22
66 -30 66 -4 0 -11 12 -14 26 -4 14 -18 38 -31 52 -14 15 -25 32 -25 38 0 6
-9 19 -20 29 -11 10 -20 24 -20 32 0 8 -4 11 -10 8 -5 -3 -10 0 -10 7 0 7 -11
26 -24 41 -14 16 -39 47 -57 69 -56 68 -184 193 -281 273 -60 49 -255 185
-266 185 -5 0 -15 7 -22 15 -7 8 -16 12 -21 9 -5 -3 -9 0 -9 5 0 6 -6 11 -14
11 -8 0 -16 4 -18 8 -3 9 -289 152 -312 157 -6 1 -18 5 -26 8 -39 17 -228 79
-255 84 -16 3 -32 8 -35 12 -3 5 -15 7 -28 6 -13 -1 -25 2 -27 6 -4 6 -64 21
-97 23 -3 1 -9 4 -13 8 -4 4 -13 4 -21 1 -8 -3 -14 -1 -14 5 0 5 -11 8 -25 7
-14 -2 -27 0 -29 4 -3 4 -21 8 -42 9 -20 2 -45 7 -55 12 -12 7 -20 7 -24 0 -4
-6 -12 -7 -18 -3 -16 10 -65 16 -222 29 -59 5 -394 12 -398 8z"/>
</g>
</svg>
